<svg width="48" height="55" viewBox="0 0 48 55" fill="none" xmlns="http://www.w3.org/2000/svg">
<path d="M2.93169 4.81348H45.8944C47.0573 4.81348 48 5.75618 48 6.91905C48 8.08193 47.0573 9.02463 45.8944 9.02463H2.93169C1.76881 9.02463 0.826111 8.08193 0.826111 6.91905C0.826111 5.75618 1.76881 4.81348 2.93169 4.81348Z" fill="#696969"/>
<path d="M3.30615 0.55249H11.9444V2.54594H3.30615V0.55249Z" fill="#009FE3"/>
<path d="M14.6024 0.55249H23.2406V2.54594H14.6024V0.55249Z" fill="#C7D302"/>
<path d="M25.749 0.55249H34.3873V2.54594H25.749V0.55249Z" fill="#F07E16"/>
<path d="M36.8486 0.55249H45.4869V2.54594H36.8486V0.55249Z" fill="#DF2815"/>
<path d="M36.8486 11.2174H45.4869V25.8194H36.8486V11.2174Z" fill="#DF2815"/>
<path d="M25.749 11.2174H34.4034V34.9394H25.749V11.2174Z" fill="#F07E16"/>
<path d="M14.6024 11.2174H23.2401V46.7506H14.6024V11.2174Z" fill="#C7D302"/>
<path d="M3.30615 11.2174H11.9444V54.525H3.30615V11.2174Z" fill="#009FE3"/>
</svg>
